<?xml version="1.0" encoding="UTF-8" standalone="no"?>
<svg
   xmlns:dc="http://purl.org/dc/elements/1.1/"
   xmlns:cc="http://creativecommons.org/ns#"
   xmlns:rdf="http://www.w3.org/1999/02/22-rdf-syntax-ns#"
   xmlns:svg="http://www.w3.org/2000/svg"
   xmlns="http://www.w3.org/2000/svg"
   width="230"
   height="192"
   viewBox="0 0 230 192"
   version="1.1"
   id="svg30357">
  <defs
     id="defs30351">
    <rect
       x="-38.218372"
       y="267.4129"
       width="160.18513"
       height="78.161293"
       id="rect49220" />
    <clipPath
       clipPathUnits="userSpaceOnUse"
       id="clipPath25713">
      <g
         id="use25715">
        <g
           style="display:inline;fill:#052e51;fill-opacity:1"
           id="g25737"
           transform="matrix(5.6403052,0,0,5.6403052,-858.87664,-14902.852)">
          <g
             id="g25735"
             transform="translate(158.6946,2666.6472)">
            <path
               style="stroke:none"
               d="m 15.890625,0 -1.28125,-14.453125 h -3.1875 l -2.28125,8.234375 c -0.265625,1 -0.453125,1.984375 -0.515625,2.421875 -0.09375,-0.4375 -0.21875,-1.25 -0.546875,-2.46875 l -2.21875,-8.1875 h -3.1875 L 1.359375,0 H 3.71875 l 0.625,-8.71875 C 4.40625,-9.625 4.484375,-11 4.484375,-11.484375 4.578125,-11 4.84375,-9.703125 5.109375,-8.75 L 7.515625,0 H 9.5625 l 2.625,-9.140625 c 0.28125,-0.921875 0.46875,-1.84375 0.5625,-2.3125 0,0.4375 0.04687,1.578125 0.109375,2.5 L 13.53125,0 Z m 0,0"
               id="path25733" />
          </g>
        </g>
        <path
           style="display:inline;fill:#052e51;fill-opacity:1;stroke:none;stroke-width:3.77277"
           d="M 146.79438,137.85273 V 97.059602 l -8.72455,1.59164 v 39.201488 z m 1.41479,-51.521957 c 0,-3.301178 -2.59379,-5.836011 -5.65917,-5.836011 -3.24223,0 -5.77706,2.593783 -5.77706,5.836011 0,3.183279 2.47588,5.777062 5.60021,5.777062 3.24223,0 5.83602,-2.593783 5.83602,-5.777062 z m 0,0"
           id="path25739" />
      </g>
    </clipPath>
    <clipPath
       clipPathUnits="userSpaceOnUse"
       id="clipPath25971">
      <g
         id="use25973"
         style="fill:#facf05;fill-opacity:1">
        <rect
           style="font-variation-settings:normal;opacity:1;vector-effect:none;fill:#facf05;fill-opacity:1;fill-rule:evenodd;stroke:#facf05;stroke-width:0.947302;stroke-linecap:round;stroke-linejoin:bevel;stroke-miterlimit:4;stroke-dasharray:none;stroke-dashoffset:0;stroke-opacity:1;paint-order:stroke markers fill;stop-color:#000000;stop-opacity:1"
           id="rect49366"
           width="191.0527"
           height="191.0527"
           x="0.47365099"
           y="0.47365099" />
      </g>
    </clipPath>
    <clipPath
       clipPathUnits="userSpaceOnUse"
       id="clipPath30471">
      <g
         id="use30473">
        <g
           style="display:inline;fill:#052e51;fill-opacity:1"
           id="g30496"
           transform="matrix(7.6890188,0,0,7.6890188,-1211.3693,-20350.483)">
          <g
             id="g30494"
             transform="translate(158.6946,2666.6472)">
            <path
               style="stroke:none"
               d="m 15.890625,0 -1.28125,-14.453125 h -3.1875 l -2.28125,8.234375 c -0.265625,1 -0.453125,1.984375 -0.515625,2.421875 -0.09375,-0.4375 -0.21875,-1.25 -0.546875,-2.46875 l -2.21875,-8.1875 h -3.1875 L 1.359375,0 H 3.71875 l 0.625,-8.71875 C 4.40625,-9.625 4.484375,-11 4.484375,-11.484375 4.578125,-11 4.84375,-9.703125 5.109375,-8.75 L 7.515625,0 H 9.5625 l 2.625,-9.140625 c 0.28125,-0.921875 0.46875,-1.84375 0.5625,-2.3125 0,0.4375 0.04687,1.578125 0.109375,2.5 L 13.53125,0 Z m 0,0"
               id="path30492" />
          </g>
        </g>
        <g
           id="g30500"
           style="fill:#052e51;fill-opacity:1"
           transform="matrix(7.6890188,0,0,7.6890188,140.50354,153.41903)">
          <path
             style="stroke:none;stroke-width:0.654071"
             d="M 1.841496,-1.4230287e-4 V -7.0722863 L 0.32895656,-6.79635 V -1.4230287e-4 Z M 2.0867727,-8.9323013 c 0,-0.572312 -0.4496739,-1.011766 -0.9811067,-1.011766 -0.56209234,0 -1.00154644,0.449674 -1.00154644,1.011766 0,0.551873 0.4292342,1.001547 0.97088684,1.001547 0.5620924,0 1.0117663,-0.449674 1.0117663,-1.001547 z m 0,0"
             id="path30498" />
        </g>
      </g>
    </clipPath>
    <clipPath
       clipPathUnits="userSpaceOnUse"
       id="clipPath30471-6">
      <g
         id="use30473-7"
         style="fill:#000000;fill-opacity:1">
        <g
           style="display:inline;fill:#000000;fill-opacity:1"
           id="g49093"
           transform="matrix(7.6890188,0,0,7.6890188,-1211.3693,-20350.483)">
          <g
             id="g49091"
             transform="translate(158.6946,2666.6472)"
             style="fill:#000000;fill-opacity:1">
            <path
               style="fill:#000000;fill-opacity:1;stroke:none"
               d="m 15.890625,0 -1.28125,-14.453125 h -3.1875 l -2.28125,8.234375 c -0.265625,1 -0.453125,1.984375 -0.515625,2.421875 -0.09375,-0.4375 -0.21875,-1.25 -0.546875,-2.46875 l -2.21875,-8.1875 h -3.1875 L 1.359375,0 H 3.71875 l 0.625,-8.71875 C 4.40625,-9.625 4.484375,-11 4.484375,-11.484375 4.578125,-11 4.84375,-9.703125 5.109375,-8.75 L 7.515625,0 H 9.5625 l 2.625,-9.140625 c 0.28125,-0.921875 0.46875,-1.84375 0.5625,-2.3125 0,0.4375 0.04687,1.578125 0.109375,2.5 L 13.53125,0 Z m 0,0"
               id="path49089" />
          </g>
        </g>
        <g
           id="g49097"
           style="fill:#000000;fill-opacity:1"
           transform="matrix(7.6890188,0,0,7.6890188,140.50354,153.41903)">
          <path
             style="fill:#000000;fill-opacity:1;stroke:none;stroke-width:0.654071"
             d="M 1.841496,-1.4230287e-4 V -7.0722863 L 0.32895656,-6.79635 V -1.4230287e-4 Z M 2.0867727,-8.9323013 c 0,-0.572312 -0.4496739,-1.011766 -0.9811067,-1.011766 -0.56209234,0 -1.00154644,0.449674 -1.00154644,1.011766 0,0.551873 0.4292342,1.001547 0.97088684,1.001547 0.5620924,0 1.0117663,-0.449674 1.0117663,-1.001547 z m 0,0"
             id="path49095" />
        </g>
      </g>
    </clipPath>
  </defs>
  <metadata
     id="metadata30354">
    <rdf:RDF>
      <cc:Work
         rdf:about="">
        <dc:format>image/svg+xml</dc:format>
        <dc:type
           rdf:resource="http://purl.org/dc/dcmitype/StillImage" />
        <dc:title></dc:title>
      </cc:Work>
    </rdf:RDF>
  </metadata>
  <g
     id="layer1">
    <g
       style="display:inline;fill:#052e51;fill-opacity:1"
       id="g14011"
       transform="matrix(3.772775,0,0,3.772775,-531.73425,-9923.1028)">
      <g
         id="use14009"
         transform="translate(175.81865,2666.6472)" />
    </g>
    <text
       xml:space="preserve"
       id="text49218"
       style="font-size:17.3333px;line-height:1.25;font-family:sans-serif;-inkscape-font-specification:'sans-serif, Normal';letter-spacing:0px;white-space:pre;shape-inside:url(#rect49220);" />
    <text
       xml:space="preserve"
       style="font-size:17.3333px;line-height:1.25;font-family:sans-serif;-inkscape-font-specification:'sans-serif, Normal';letter-spacing:0px"
       x="-126.99496"
       y="273.4021"
       id="text49226"><tspan
         id="tspan49224"
         x="-126.99496"
         y="273.4021" /></text>
    <path
       id="rect49370"
       style="font-variation-settings:normal;opacity:1;vector-effect:none;fill:#facf05;fill-opacity:1;fill-rule:evenodd;stroke:none;stroke-width:1.04196;stroke-linecap:round;stroke-linejoin:bevel;stroke-miterlimit:4;stroke-dasharray:none;stroke-dashoffset:0;stroke-opacity:1;paint-order:stroke markers fill;stop-color:#000000;stop-opacity:1"
       d="M 0.7439748,0.17677669 H 230.74397 V 192.17678 H 0.7439748 Z" />
    <g
       aria-label="M"
       id="text15756"
       style="font-style:normal;font-variant:normal;font-weight:bold;font-stretch:normal;font-size:180px;line-height:1.25;font-family:'Nimbus Sans Narrow';-inkscape-font-specification:'Nimbus Sans Narrow, Bold';font-variant-ligatures:normal;font-variant-caps:normal;font-variant-numeric:normal;font-variant-east-asian:normal;letter-spacing:0px;fill:#052e51;fill-opacity:1;stroke:none;stroke-width:1.9753;stroke-opacity:1">
      <path
         d="M 121.93825,28.987646 H 90.078251 l -19.08,102.600004 -19.44,-102.600004 h -32.22 V 158.22765 h 20.52 V 48.607646 l 19.62,109.620004 h 21.78 L 101.41825,48.607646 V 158.22765 h 20.52 z"
         style="font-style:normal;font-variant:normal;font-weight:bold;font-stretch:normal;font-size:180px;font-family:'Nimbus Sans Narrow';-inkscape-font-specification:'Nimbus Sans Narrow, Bold';font-variant-ligatures:normal;font-variant-caps:normal;font-variant-numeric:normal;font-variant-east-asian:normal;fill:#052e51;fill-opacity:1;stroke:none;stroke-width:1.9753;stroke-opacity:1"
         id="path900" />
    </g>
    <g
       aria-label="IL"
       transform="scale(1.0819892,0.92422365)"
       id="text15760"
       style="font-style:normal;font-variant:normal;font-weight:bold;font-stretch:normal;font-size:118.025px;line-height:1.25;font-family:'Nimbus Sans Narrow';-inkscape-font-specification:'Nimbus Sans Narrow, Bold';font-variant-ligatures:normal;font-variant-caps:normal;font-variant-numeric:normal;font-variant-east-asian:normal;letter-spacing:0px;fill:#052e51;fill-opacity:1;stroke:none;stroke-width:0.741054;stroke-opacity:1">
      <path
         d="M 140.7077,87.136513 H 126.19063 V 171.87846 H 140.7077 Z"
         style="font-style:normal;font-variant:normal;font-weight:bold;font-stretch:normal;font-size:118.025px;font-family:'Nimbus Sans Narrow';-inkscape-font-specification:'Nimbus Sans Narrow, Bold';font-variant-ligatures:normal;font-variant-caps:normal;font-variant-numeric:normal;font-variant-east-asian:normal;fill:#052e51;fill-opacity:1;stroke:none;stroke-width:0.741054;stroke-opacity:1"
         id="path903" />
      <path
         d="m 168.85851,87.136513 h -14.51707 v 84.741947 h 49.0984 v -15.34325 h -34.58133 z"
         style="font-style:normal;font-variant:normal;font-weight:bold;font-stretch:normal;font-size:118.025px;font-family:'Nimbus Sans Narrow';-inkscape-font-specification:'Nimbus Sans Narrow, Bold';font-variant-ligatures:normal;font-variant-caps:normal;font-variant-numeric:normal;font-variant-east-asian:normal;fill:#052e51;fill-opacity:1;stroke:none;stroke-width:0.741054;stroke-opacity:1"
         id="path905" />
    </g>
  </g>
</svg>
