<?xml version="1.0" encoding="UTF-8" standalone="no"?>
<svg
   xmlns:dc="http://purl.org/dc/elements/1.1/"
   xmlns:cc="http://creativecommons.org/ns#"
   xmlns:rdf="http://www.w3.org/1999/02/22-rdf-syntax-ns#"
   xmlns:svg="http://www.w3.org/2000/svg"
   xmlns="http://www.w3.org/2000/svg"
   xmlns:sodipodi="http://sodipodi.sourceforge.net/DTD/sodipodi-0.dtd"
   xmlns:inkscape="http://www.inkscape.org/namespaces/inkscape"
   width="192"
   height="192"
   viewBox="0 0 192 192"
   version="1.1"
   id="svg30357"
   inkscape:version="1.0.1 (0767f8302a, 2020-10-17)"
   sodipodi:docname="r2Square.svg"
   inkscape:export-filename="/home/ody7/Pictures/design/development/r4Square.png"
   inkscape:export-xdpi="201"
   inkscape:export-ydpi="201">
  <defs
     id="defs30351" />
  <sodipodi:namedview
     id="base"
     pagecolor="#ffffff"
     bordercolor="#666666"
     borderopacity="1.0"
     inkscape:pageopacity="0.0"
     inkscape:pageshadow="2"
     inkscape:zoom="2.7039289"
     inkscape:cx="64.104758"
     inkscape:cy="96.646709"
     inkscape:document-units="px"
     inkscape:current-layer="layer1"
     inkscape:document-rotation="0"
     showgrid="false"
     units="px"
     width="49px"
     scale-x="1"
     viewbox-width="192"
     inkscape:window-width="1428"
     inkscape:window-height="1016"
     inkscape:window-x="122"
     inkscape:window-y="27"
     inkscape:window-maximized="0" />
  <metadata
     id="metadata30354">
    <rdf:RDF>
      <cc:Work
         rdf:about="">
        <dc:format>image/svg+xml</dc:format>
        <dc:type
           rdf:resource="http://purl.org/dc/dcmitype/StillImage" />
        <dc:title></dc:title>
      </cc:Work>
    </rdf:RDF>
  </metadata>
  <g
     inkscape:label="Layer 1"
     inkscape:groupmode="layer"
     id="layer1">
    <path
       style="display:inline;fill:#149e42;fill-opacity:1;fill-rule:nonzero;stroke:none;stroke-width:5.25353"
       d="m 7.9517477,215.85674 c 51.5297673,0 93.2706823,41.74087 93.2706823,93.27065 0,51.50928 -41.740915,93.27065 -93.2706823,93.27065 -51.5297267,0 -93.2706537,-41.76137 -93.2706537,-93.27065 0,-51.52978 41.740927,-93.27065 93.2706537,-93.27065"
       id="path13175" />
    <rect
       style="font-variation-settings:normal;opacity:1;vector-effect:none;fill:#149e42;fill-opacity:1;fill-rule:evenodd;stroke:#149e42;stroke-width:0.947302;stroke-linecap:round;stroke-linejoin:bevel;stroke-miterlimit:4;stroke-dasharray:none;stroke-dashoffset:0;stroke-opacity:1;paint-order:stroke markers fill;stop-color:#000000;stop-opacity:1"
       id="rect23198"
       width="191.0527"
       height="191.0527"
       x="0.47365099"
       y="0.47365099"
       inkscape:export-xdpi="96"
       inkscape:export-ydpi="96" />
    <g
       style="display:inline;fill:#ffffff;fill-opacity:1"
       id="g5855"
       transform="matrix(7.8377964,0,0,7.8377964,-2208.752,-11316.519)">
      <g
         id="use5849"
         transform="translate(259.3035,1463.8248)">
        <path
           style="stroke:none"
           d="m 10.421875,0 -1.90625,-3.109375 c -0.671875,-1.078125 -1.53125,-2.328125 -2,-2.578125 2.03125,0 3.21875,-1.6875 3.21875,-3.546875 0,-2.015625 -1.3125,-3.703125 -4.203125,-3.703125 H 1.59375 V 0 h 2.109375 v -5.59375 c 0.40625,0.03125 0.59375,0.15625 0.84375,0.40625 C 5.25,-4.484375 5.84375,-3.59375 6.75,-2 L 7.875,0 Z M 7.5,-9.21875 C 7.5,-8.546875 7.265625,-8 6.921875,-7.640625 c -0.40625,0.390625 -1,0.546875 -2.125,0.546875 H 3.703125 V -11.1875 H 4.875 c 1.90625,0 2.625,0.671875 2.625,1.96875 z m 0,0"
           id="path23176" />
      </g>
      <g
         id="use5851"
         transform="translate(270.20065,1463.8248)">
        <path
           style="stroke:none"
           d="M 9.71875,-2.328125 V -4.0625 H 8.796875 c -0.140625,0 -0.421875,0.046875 -0.5,0.046875 0,-0.078125 0.015625,-0.375 0.015625,-0.453125 V -9.375 l -1.609375,0.40625 -0.21875,2.671875 c -0.0625,0.6875 -0.09375,1.40625 -0.09375,1.84375 0,0.078125 0.015625,0.359375 0.015625,0.421875 -0.03125,0 -0.21875,-0.03125 -0.421875,-0.03125 h -2.46875 c -0.234375,0 -0.46875,0.046875 -0.53125,0.046875 C 3.078125,-4.1875 3.515625,-4.921875 3.78125,-5.5 l 3.171875,-6.890625 H 4.78125 l -3.953125,8.59375 v 1.46875 H 5.71875 c 0.359375,0 0.59375,-0.046875 0.65625,-0.046875 0,0.078125 -0.015625,0.359375 -0.015625,0.578125 v 2.4375 L 8.3125,0.28125 v -1.9375 c 0,-0.375 -0.03125,-0.65625 -0.046875,-0.71875 0.03125,0 0.25,0.046875 0.53125,0.046875 z m 0,0"
           id="path23172" />
      </g>
      <g
         id="use5853"
         transform="translate(280.8548,1463.8248)">
        <path
           style="stroke:none"
           d=""
           id="path23168" />
      </g>
    </g>
    <path
       style="display:inline;fill:#f0dcd1;fill-opacity:1;fill-rule:nonzero;stroke:none;stroke-width:1.33333"
       d="m -77.440802,-21.749619 c -4.224,0 -7.656267,-3.42188 -7.656267,-7.656252 0,-4.22396 3.432267,-7.656254 7.656267,-7.656254 4.229066,0 7.656133,3.432294 7.656133,7.656254 0,4.234372 -3.427067,7.656252 -7.656133,7.656252 m 0,-2.963546 c 2.588533,0 4.687466,-2.09896 4.692666,-4.692706 0,-2.588547 -2.104133,-4.687507 -4.692666,-4.692707 -2.588667,0.0053 -4.6824,2.10416 -4.6876,4.692707 0,2.593746 2.098933,4.692706 4.6876,4.692706"
       id="path6417" />
    <path
       style="display:inline;fill:#149e42;fill-opacity:1;fill-rule:nonzero;stroke:none;stroke-width:1.33333"
       d="m -51.701336,-3.6194185 -48.302004,-0.114533 0.07867,-32.1666665 48.296799,0.114533 z m 0,0"
       id="path7031" />
    <g
       style="display:inline;fill:#ffffff;fill-opacity:1"
       id="g7039"
       transform="matrix(7.9092955,0,0,8.1996712,-8612.2638,-4603.3785)">
      <g
         id="use7033"
         transform="translate(1090.1108,579.63013)">
        <path
           style="stroke:none"
           d="m 10.421875,0.03125 -1.90625,-3.125 C 7.859375,-4.171875 7,-5.421875 6.53125,-5.671875 c 2.03125,0 3.21875,-1.6875 3.21875,-3.546875 0.015625,-2.015625 -1.296875,-3.703125 -4.1875,-3.703125 L 1.625,-12.9375 1.59375,0 3.703125,0.015625 3.71875,-5.578125 c 0.40625,0.03125 0.59375,0.15625 0.84375,0.40625 0.703125,0.703125 1.296875,1.59375 2.1875,3.1875 l 1.125,2 z m -2.90625,-9.234375 c 0,0.671875 -0.234375,1.21875 -0.578125,1.578125 -0.40625,0.390625 -1,0.546875 -2.125,0.546875 H 3.71875 l 0.015625,-4.09375 H 4.90625 c 1.90625,0 2.625,0.671875 2.609375,1.96875 z m 0,0"
           id="path23092" />
      </g>
      <g
         id="use7035"
         transform="translate(1101.0079,579.65594)">
        <path
           style="stroke:none"
           d="M 9.546875,-1.6875 H 5.71875 c -0.65625,0 -1.4375,0.046875 -1.8125,0.078125 0.25,-0.125 0.921875,-0.828125 1.5625,-1.484375 0.75,-0.734375 1.5,-1.46875 2,-2.078125 1.0625,-1.28125 1.765625,-2.625 1.765625,-3.84375 0.015625,-2.03125 -1.46875,-3.53125 -3.5625,-3.53125 -1.65625,0 -3.046875,0.609375 -4.40625,1.796875 l 1.03125,1.21875 c 0.8125,-0.609375 1.640625,-1.203125 2.75,-1.203125 1.046875,0 1.859375,0.671875 1.84375,2 0,1.09375 -0.578125,2.421875 -2.40625,4.4375 -1.03125,1.109375 -2.28125,2.3125 -3.015625,2.9375 V 0 l 7.625,0.015625 z m 0,0"
           id="path23088" />
      </g>
      <g
         id="use7037"
         transform="translate(1111.6621,579.68115)">
        <path
           style="stroke:none"
           d=""
           id="path23084" />
      </g>
    </g>
  </g>
</svg>
